<svg width="18" height="18" viewBox="0 0 18 18" fill="none" xmlns="http://www.w3.org/2000/svg">
<path d="M8.6 8C8.6 7.448 8.152 7 7.6 7C5.945 7 2.655 7 1 7C0.448 7 0 7.448 0 8V17C0 17.552 0.448 18 1 18H7.6C8.152 18 8.6 17.552 8.6 17C8.6 14.908 8.6 10.092 8.6 8ZM18 14C18 13.448 17.552 13 17 13H11C10.462 13 10 13.477 10 14V17C10 17.552 10.448 18 11 18H17C17.552 18 18 17.552 18 17V14ZM18 1C18 0.448 17.552 0 17 0C15.463 0 12.537 0 11 0C10.448 0 10 0.448 10 1V10.6C10 11.152 10.448 11.6 11 11.6H17C17.552 11.6 18 11.152 18 10.6C18 8.406 18 3.194 18 1ZM8.6 1C8.6 0.448 8.152 0 7.6 0C5.945 0 2.655 0 1 0C0.448 0 0 0.448 0 1V4.6C0 5.152 0.448 5.6 1 5.6H7.6C8.152 5.6 8.6 5.152 8.6 4.6C8.6 3.583 8.6 2.017 8.6 1Z" fill="#F5F5F5"/>
</svg>
