<svg width="26" height="26" viewBox="0 0 26 26" fill="none" xmlns="http://www.w3.org/2000/svg">
<g clip-path="url(#clip0_50_30)" filter="url(#filter0_d_50_30)">
<path d="M12.6 8C12.6 7.448 12.152 7 11.6 7C9.945 7 6.655 7 5 7C4.448 7 4 7.448 4 8V17C4 17.552 4.448 18 5 18H11.6C12.152 18 12.6 17.552 12.6 17C12.6 14.908 12.6 10.092 12.6 8ZM22 14C22 13.448 21.552 13 21 13H15C14.462 13 14 13.477 14 14V17C14 17.552 14.448 18 15 18H21C21.552 18 22 17.552 22 17V14ZM22 1C22 0.448 21.552 0 21 0C19.463 0 16.537 0 15 0C14.448 0 14 0.448 14 1V10.6C14 11.152 14.448 11.6 15 11.6H21C21.552 11.6 22 11.152 22 10.6C22 8.406 22 3.194 22 1ZM12.6 1C12.6 0.448 12.152 0 11.6 0C9.945 0 6.655 0 5 0C4.448 0 4 0.448 4 1V4.6C4 5.152 4.448 5.6 5 5.6H11.6C12.152 5.6 12.6 5.152 12.6 4.6C12.6 3.583 12.6 2.017 12.6 1Z" fill="#0C0C0C"/>
</g>
<defs>
<filter id="filter0_d_50_30" x="0" y="0" width="26" height="26" filterUnits="userSpaceOnUse" color-interpolation-filters="sRGB">
<feFlood flood-opacity="0" result="BackgroundImageFix"/>
<feColorMatrix in="SourceAlpha" type="matrix" values="0 0 0 0 0 0 0 0 0 0 0 0 0 0 0 0 0 0 127 0" result="hardAlpha"/>
<feOffset dy="4"/>
<feGaussianBlur stdDeviation="2"/>
<feComposite in2="hardAlpha" operator="out"/>
<feColorMatrix type="matrix" values="0 0 0 0 0 0 0 0 0 0 0 0 0 0 0 0 0 0 0.25 0"/>
<feBlend mode="normal" in2="BackgroundImageFix" result="effect1_dropShadow_50_30"/>
<feBlend mode="normal" in="SourceGraphic" in2="effect1_dropShadow_50_30" result="shape"/>
</filter>
<clipPath id="clip0_50_30">
<rect width="18" height="18" fill="white" transform="translate(4)"/>
</clipPath>
</defs>
</svg>
