<svg width="493" height="495" viewBox="0 0 493 495" fill="none" xmlns="http://www.w3.org/2000/svg">
<path d="M5.06639e-06 1.67479C38.8684 -0.754489 77.585 -3.03193 109.621 13.973C141.657 31.1298 166.861 67.7207 192.976 93.5318C219.09 119.343 245.964 134.374 274.508 150.164C303.052 165.803 333.114 182.2 363.177 204.671C393.391 227.142 423.605 255.686 421.328 291.518C419.05 327.198 384.281 370.166 390.81 405.238C397.187 440.159 445.013 467.337 492.688 494.362L5.06639e-06 494.362L5.06639e-06 1.67479Z" fill="url(#paint0_linear_49_31)"/>
<path d="M7.15532e-05 165.955C25.8111 164.284 51.774 162.766 73.0302 174.153C94.4382 185.541 111.291 209.985 128.752 227.142C146.06 244.299 163.976 254.319 182.955 264.796C202.085 275.272 222.127 286.204 242.169 301.235C262.21 316.266 282.403 335.245 280.885 359.082C279.367 382.919 256.137 411.615 260.54 434.845C264.791 458.227 296.675 476.295 328.408 494.362L7.15532e-05 494.362L7.15532e-05 165.955Z" fill="url(#paint1_linear_49_31)"/>
<path d="M3.52821e-05 330.082C12.9056 329.323 25.8111 328.564 36.591 334.182C47.2191 339.951 55.5697 352.098 64.3759 360.752C73.0302 369.406 81.9881 374.417 91.5534 379.579C100.967 384.893 110.988 390.359 121.008 397.799C131.181 405.238 141.202 414.804 140.443 426.798C139.683 438.641 128.144 452.913 130.27 464.604C132.396 476.295 148.338 485.404 164.28 494.362H3.52821e-05L3.52821e-05 330.082Z" fill="url(#paint2_linear_49_31)"/>
<defs>
<linearGradient id="paint0_linear_49_31" x1="246.344" y1="494.362" x2="246.344" y2="0" gradientUnits="userSpaceOnUse">
<stop stop-color="#F53218"/>
<stop offset="1" stop-color="#FFE600"/>
</linearGradient>
<linearGradient id="paint1_linear_49_31" x1="164.204" y1="494.362" x2="164.204" y2="164.803" gradientUnits="userSpaceOnUse">
<stop stop-color="#E30B00"/>
<stop offset="1" stop-color="#742824" stop-opacity="0"/>
</linearGradient>
<linearGradient id="paint2_linear_49_31" x1="82.1399" y1="494.362" x2="82.1399" y2="329.559" gradientUnits="userSpaceOnUse">
<stop stop-color="#A40000"/>
<stop offset="1" stop-color="#9B302D" stop-opacity="0"/>
</linearGradient>
</defs>
</svg>
